<svg xmlns="http://www.w3.org/2000/svg" xmlns:xlink="http://www.w3.org/1999/xlink" width="500" zoomAndPan="magnify" viewBox="0 0 375 374.999991" height="500" preserveAspectRatio="xMidYMid meet" version="1.0"><defs><filter x="0%" y="0%" width="100%" height="100%" id="0833be8343"><feColorMatrix values="0 0 0 0 1 0 0 0 0 1 0 0 0 0 1 0 0 0 1 0" color-interpolation-filters="sRGB"/></filter><g/><mask id="a26ff9d767"><g filter="url(#0833be8343)"><rect x="-37.5" width="450" fill="#000000" y="-37.499999" height="449.999989" fill-opacity="0.85"/></g></mask><clipPath id="5a56d79dc5"><path d="M 0.425781 0.425781 L 334.574219 0.425781 L 334.574219 334.574219 L 0.425781 334.574219 Z M 0.425781 0.425781 " clip-rule="nonzero"/></clipPath><clipPath id="317c2bc0a6"><path d="M 167.5 0.425781 C 75.226562 0.425781 0.425781 75.226562 0.425781 167.5 C 0.425781 259.773438 75.226562 334.574219 167.5 334.574219 C 259.773438 334.574219 334.574219 259.773438 334.574219 167.5 C 334.574219 75.226562 259.773438 0.425781 167.5 0.425781 Z M 167.5 0.425781 " clip-rule="nonzero"/></clipPath><clipPath id="eb7923396e"><path d="M 0.425781 0.425781 L 334.574219 0.425781 L 334.574219 334.574219 L 0.425781 334.574219 Z M 0.425781 0.425781 " clip-rule="nonzero"/></clipPath><clipPath id="3eb2782e3b"><path d="M 167.5 0.425781 C 75.226562 0.425781 0.425781 75.226562 0.425781 167.5 C 0.425781 259.773438 75.226562 334.574219 167.5 334.574219 C 259.773438 334.574219 334.574219 259.773438 334.574219 167.5 C 334.574219 75.226562 259.773438 0.425781 167.5 0.425781 Z M 167.5 0.425781 " clip-rule="nonzero"/></clipPath><clipPath id="d349b067e4"><rect x="0" width="335" y="0" height="335"/></clipPath><clipPath id="66004927f0"><rect x="0" width="335" y="0" height="335"/></clipPath><mask id="c642d97963"><g filter="url(#0833be8343)"><rect x="-37.5" width="450" fill="#000000" y="-37.499999" height="449.999989" fill-opacity="0.85"/></g></mask><clipPath id="bc33503df3"><path d="M 0.894531 0.894531 L 320.105469 0.894531 L 320.105469 320.105469 L 0.894531 320.105469 Z M 0.894531 0.894531 " clip-rule="nonzero"/></clipPath><clipPath id="aad158988d"><path d="M 160.5 0.894531 C 72.351562 0.894531 0.894531 72.351562 0.894531 160.5 C 0.894531 248.648438 72.351562 320.105469 160.5 320.105469 C 248.648438 320.105469 320.105469 248.648438 320.105469 160.5 C 320.105469 72.351562 248.648438 0.894531 160.5 0.894531 Z M 160.5 0.894531 " clip-rule="nonzero"/></clipPath><clipPath id="acdef3afb6"><path d="M 0.894531 0.894531 L 320.105469 0.894531 L 320.105469 320.105469 L 0.894531 320.105469 Z M 0.894531 0.894531 " clip-rule="nonzero"/></clipPath><clipPath id="5b7f2e0423"><path d="M 160.5 0.894531 C 72.351562 0.894531 0.894531 72.351562 0.894531 160.5 C 0.894531 248.648438 72.351562 320.105469 160.5 320.105469 C 248.648438 320.105469 320.105469 248.648438 320.105469 160.5 C 320.105469 72.351562 248.648438 0.894531 160.5 0.894531 Z M 160.5 0.894531 " clip-rule="nonzero"/></clipPath><clipPath id="a0216aaa0d"><rect x="0" width="321" y="0" height="321"/></clipPath><clipPath id="e5ad6afbb6"><rect x="0" width="321" y="0" height="321"/></clipPath><clipPath id="7a649ab67d"><path d="M 36.390625 36.390625 L 338.609375 36.390625 L 338.609375 338.609375 L 36.390625 338.609375 Z M 36.390625 36.390625 " clip-rule="nonzero"/></clipPath><clipPath id="54fd160767"><path d="M 187.5 36.390625 C 104.042969 36.390625 36.390625 104.042969 36.390625 187.5 C 36.390625 270.957031 104.042969 338.609375 187.5 338.609375 C 270.957031 338.609375 338.609375 270.957031 338.609375 187.5 C 338.609375 104.042969 270.957031 36.390625 187.5 36.390625 Z M 187.5 36.390625 " clip-rule="nonzero"/></clipPath><clipPath id="c1c380ee9f"><path d="M 0.390625 0.390625 L 302.609375 0.390625 L 302.609375 302.609375 L 0.390625 302.609375 Z M 0.390625 0.390625 " clip-rule="nonzero"/></clipPath><clipPath id="adc650f212"><path d="M 151.5 0.390625 C 68.042969 0.390625 0.390625 68.042969 0.390625 151.5 C 0.390625 234.957031 68.042969 302.609375 151.5 302.609375 C 234.957031 302.609375 302.609375 234.957031 302.609375 151.5 C 302.609375 68.042969 234.957031 0.390625 151.5 0.390625 Z M 151.5 0.390625 " clip-rule="nonzero"/></clipPath><clipPath id="cff5011ebe"><rect x="0" width="303" y="0" height="303"/></clipPath><clipPath id="bd7b396e27"><path d="M 204 164 L 262 164 L 262 222.335938 L 204 222.335938 Z M 204 164 " clip-rule="nonzero"/></clipPath></defs><g mask="url(#a26ff9d767)"><g transform="matrix(1, 0, 0, 1, 20, 20)"><g clip-path="url(#66004927f0)"><g clip-path="url(#5a56d79dc5)"><g clip-path="url(#317c2bc0a6)"><g><g clip-path="url(#d349b067e4)"><g clip-path="url(#eb7923396e)"><g clip-path="url(#3eb2782e3b)"><path fill="#263d54" d="M 0.425781 0.425781 L 334.574219 0.425781 L 334.574219 334.574219 L 0.425781 334.574219 Z M 0.425781 0.425781 " fill-opacity="1" fill-rule="nonzero"/></g></g></g></g></g></g></g></g></g><g mask="url(#c642d97963)"><g transform="matrix(1, 0, 0, 1, 27, 27)"><g clip-path="url(#e5ad6afbb6)"><g clip-path="url(#bc33503df3)"><g clip-path="url(#aad158988d)"><g transform="matrix(1, 0, 0, 1, 0.000000000000003553, 0)"><g clip-path="url(#a0216aaa0d)"><g clip-path="url(#acdef3afb6)"><g clip-path="url(#5b7f2e0423)"><path fill="#bf1b27" d="M 0.894531 0.894531 L 320.105469 0.894531 L 320.105469 320.105469 L 0.894531 320.105469 Z M 0.894531 0.894531 " fill-opacity="1" fill-rule="nonzero"/></g></g></g></g></g></g></g></g></g><g clip-path="url(#7a649ab67d)"><g clip-path="url(#54fd160767)"><g transform="matrix(1, 0, 0, 1, 36, 36)"><g clip-path="url(#cff5011ebe)"><g clip-path="url(#c1c380ee9f)"><g clip-path="url(#adc650f212)"><path fill="#ffffff" d="M 0.390625 0.390625 L 302.609375 0.390625 L 302.609375 302.609375 L 0.390625 302.609375 Z M 0.390625 0.390625 " fill-opacity="1" fill-rule="nonzero"/></g></g></g></g></g></g><path fill="#263d54" d="M 174.449219 192.113281 C 173.277344 192.113281 172.109375 192.078125 170.9375 192.007812 C 169.769531 191.9375 168.605469 191.828125 167.441406 191.6875 C 166.277344 191.542969 165.121094 191.367188 163.96875 191.152344 C 162.820312 190.9375 161.675781 190.6875 160.539062 190.40625 C 159.402344 190.121094 158.277344 189.800781 157.160156 189.449219 C 156.042969 189.09375 154.9375 188.707031 153.84375 188.285156 C 152.75 187.867188 151.671875 187.410156 150.605469 186.925781 C 149.542969 186.4375 148.492188 185.917969 147.460938 185.363281 C 146.425781 184.8125 145.410156 184.230469 144.414062 183.617188 C 143.417969 183.003906 142.4375 182.359375 141.480469 181.683594 C 140.523438 181.007812 139.585938 180.308594 138.671875 179.574219 C 137.757812 178.84375 136.867188 178.085938 135.996094 177.296875 C 135.128906 176.511719 134.285156 175.699219 133.46875 174.859375 C 132.648438 174.023438 131.859375 173.160156 131.09375 172.273438 C 130.328125 171.386719 129.589844 170.476562 128.882812 169.546875 C 128.171875 168.613281 127.492188 167.660156 126.839844 166.6875 C 126.191406 165.714844 125.570312 164.71875 124.980469 163.707031 C 124.390625 162.695312 123.832031 161.667969 123.304688 160.621094 C 122.777344 159.574219 122.285156 158.515625 121.820312 157.4375 C 121.359375 156.359375 120.933594 155.269531 120.539062 154.167969 C 120.140625 153.066406 119.78125 151.953125 119.457031 150.828125 C 119.128906 149.703125 118.835938 148.566406 118.582031 147.425781 C 118.324219 146.28125 118.101562 145.132812 117.917969 143.976562 C 117.730469 142.820312 117.582031 141.660156 117.464844 140.492188 C 117.351562 139.328125 117.273438 138.160156 117.226562 136.988281 C 117.183594 135.816406 117.179688 134.648438 117.207031 133.476562 C 117.234375 132.304688 117.300781 131.136719 117.402344 129.96875 C 117.5 128.800781 117.636719 127.640625 117.808594 126.480469 C 117.980469 125.324219 118.1875 124.171875 118.429688 123.023438 C 118.675781 121.878906 118.953125 120.742188 119.265625 119.613281 C 119.578125 118.484375 119.921875 117.363281 120.304688 116.257812 C 120.6875 115.148438 121.101562 114.054688 121.550781 112.972656 C 121.996094 111.890625 122.476562 110.824219 122.992188 109.769531 C 123.507812 108.71875 124.050781 107.683594 124.628906 106.664062 C 125.207031 105.644531 125.816406 104.644531 126.453125 103.664062 C 127.09375 102.679688 127.761719 101.71875 128.460938 100.777344 C 129.15625 99.839844 129.882812 98.921875 130.636719 98.023438 C 131.390625 97.128906 132.171875 96.253906 132.980469 95.40625 C 133.789062 94.558594 134.621094 93.738281 135.480469 92.941406 C 136.339844 92.144531 137.222656 91.371094 138.125 90.628906 C 139.03125 89.886719 139.960938 89.171875 140.910156 88.488281 C 141.859375 87.800781 142.828125 87.144531 143.816406 86.519531 C 144.808594 85.890625 145.816406 85.296875 146.84375 84.734375 C 147.867188 84.167969 148.910156 83.636719 149.96875 83.136719 C 151.03125 82.636719 152.101562 82.167969 153.191406 81.734375 C 154.277344 81.296875 155.378906 80.898438 156.492188 80.53125 C 157.601562 80.164062 158.726562 79.832031 159.859375 79.53125 C 160.992188 79.234375 162.132812 78.972656 163.28125 78.742188 C 164.429688 78.515625 165.585938 78.324219 166.746094 78.167969 C 167.90625 78.007812 169.070312 77.886719 170.238281 77.800781 C 171.40625 77.714844 172.578125 77.667969 173.746094 77.652344 C 174.917969 77.640625 176.089844 77.660156 177.257812 77.71875 C 178.429688 77.777344 179.597656 77.871094 180.761719 78 C 181.925781 78.128906 183.082031 78.296875 184.238281 78.496094 C 185.390625 78.699219 186.539062 78.933594 187.675781 79.203125 C 188.816406 79.476562 189.945312 79.78125 191.066406 80.121094 C 192.1875 80.464844 193.296875 80.839844 194.394531 81.246094 C 195.492188 81.65625 196.578125 82.097656 197.648438 82.574219 C 198.71875 83.046875 199.773438 83.554688 200.8125 84.097656 C 201.851562 84.636719 202.875 85.207031 203.878906 85.8125 C 204.882812 86.414062 205.867188 87.046875 206.832031 87.710938 C 207.796875 88.375 208.742188 89.066406 209.664062 89.785156 C 210.585938 90.507812 211.488281 91.257812 212.363281 92.035156 C 213.242188 92.808594 214.09375 93.613281 214.921875 94.441406 C 215.914062 95.433594 216.871094 96.464844 217.789062 97.527344 C 218.710938 98.589844 219.585938 99.6875 220.425781 100.816406 C 221.261719 101.941406 222.058594 103.101562 222.8125 104.289062 C 223.5625 105.476562 224.269531 106.6875 224.933594 107.925781 C 225.597656 109.167969 226.214844 110.429688 226.785156 111.714844 C 227.355469 112.996094 227.875 114.300781 228.347656 115.625 C 228.824219 116.949219 229.246094 118.285156 229.625 119.640625 C 230 120.996094 230.324219 122.363281 230.597656 123.742188 C 230.871094 125.117188 231.097656 126.503906 231.269531 127.898438 C 231.441406 129.296875 231.5625 130.695312 231.628906 132.097656 C 231.699219 133.5 231.71875 134.90625 231.683594 136.3125 C 231.648438 137.714844 231.5625 139.117188 231.425781 140.515625 C 231.285156 141.914062 231.097656 143.308594 230.859375 144.691406 C 230.617188 146.078125 230.328125 147.449219 229.984375 148.8125 C 229.644531 150.175781 229.253906 151.527344 228.8125 152.859375 C 228.371094 154.195312 227.878906 155.511719 227.34375 156.808594 C 226.804688 158.109375 226.21875 159.386719 225.585938 160.640625 C 224.957031 161.894531 224.277344 163.125 223.554688 164.332031 C 222.832031 165.535156 222.066406 166.714844 221.257812 167.863281 C 220.445312 169.011719 219.597656 170.128906 218.703125 171.214844 C 217.8125 172.300781 216.882812 173.351562 215.914062 174.371094 C 214.941406 175.386719 213.9375 176.367188 212.894531 177.3125 C 211.855469 178.253906 210.777344 179.160156 209.671875 180.023438 C 208.5625 180.886719 207.421875 181.710938 206.253906 182.488281 C 205.085938 183.269531 203.890625 184.007812 202.667969 184.699219 C 201.441406 185.390625 200.195312 186.035156 198.925781 186.636719 C 197.652344 187.238281 196.363281 187.789062 195.050781 188.292969 C 193.738281 188.800781 192.410156 189.253906 191.066406 189.664062 C 189.722656 190.070312 188.363281 190.425781 186.992188 190.734375 C 185.621094 191.039062 184.238281 191.296875 182.847656 191.5 C 181.457031 191.707031 180.0625 191.859375 178.660156 191.960938 C 177.257812 192.066406 175.855469 192.117188 174.449219 192.113281 Z M 174.449219 90.257812 C 173.597656 90.257812 172.742188 90.28125 171.890625 90.328125 C 171.039062 90.375 170.191406 90.445312 169.34375 90.539062 C 168.496094 90.636719 167.652344 90.757812 166.808594 90.898438 C 165.96875 91.042969 165.132812 91.210938 164.300781 91.402344 C 163.46875 91.597656 162.644531 91.8125 161.828125 92.050781 C 161.007812 92.289062 160.195312 92.554688 159.390625 92.839844 C 158.589844 93.125 157.792969 93.433594 157.007812 93.765625 C 156.222656 94.09375 155.445312 94.449219 154.679688 94.824219 C 153.914062 95.199219 153.160156 95.597656 152.414062 96.015625 C 151.671875 96.4375 150.941406 96.875 150.222656 97.335938 C 149.507812 97.796875 148.800781 98.28125 148.113281 98.78125 C 147.421875 99.28125 146.746094 99.800781 146.085938 100.34375 C 145.425781 100.882812 144.78125 101.441406 144.152344 102.019531 C 143.523438 102.59375 142.910156 103.1875 142.316406 103.800781 C 141.722656 104.414062 141.148438 105.042969 140.589844 105.6875 C 140.03125 106.332031 139.492188 106.992188 138.96875 107.667969 C 138.449219 108.34375 137.949219 109.035156 137.46875 109.738281 C 136.988281 110.445312 136.527344 111.160156 136.085938 111.894531 C 135.648438 112.625 135.226562 113.367188 134.832031 114.121094 C 134.433594 114.878906 134.058594 115.644531 133.703125 116.417969 C 133.351562 117.195312 133.019531 117.980469 132.710938 118.777344 C 132.40625 119.574219 132.117188 120.375 131.855469 121.1875 C 131.59375 122 131.355469 122.820312 131.140625 123.644531 C 130.925781 124.46875 130.734375 125.300781 130.566406 126.136719 C 130.398438 126.972656 130.253906 127.816406 130.136719 128.660156 C 130.015625 129.503906 129.921875 130.351562 129.851562 131.203125 C 129.777344 132.050781 129.734375 132.902344 129.710938 133.757812 C 129.6875 134.609375 129.691406 135.460938 129.71875 136.316406 C 129.746094 137.167969 129.796875 138.019531 129.871094 138.867188 C 129.945312 139.71875 130.046875 140.566406 130.171875 141.410156 C 130.292969 142.253906 130.441406 143.09375 130.613281 143.929688 C 130.789062 144.765625 130.984375 145.59375 131.203125 146.417969 C 131.421875 147.242188 131.667969 148.058594 131.933594 148.871094 C 132.199219 149.679688 132.488281 150.484375 132.800781 151.277344 C 133.113281 152.070312 133.449219 152.855469 133.808594 153.628906 C 134.164062 154.40625 134.542969 155.167969 134.945312 155.921875 C 135.347656 156.671875 135.769531 157.414062 136.214844 158.144531 C 136.65625 158.871094 137.121094 159.585938 137.605469 160.289062 C 138.089844 160.992188 138.597656 161.679688 139.121094 162.351562 C 139.644531 163.023438 140.1875 163.683594 140.75 164.324219 C 141.3125 164.964844 141.890625 165.589844 142.488281 166.199219 C 143.085938 166.808594 143.703125 167.398438 144.332031 167.972656 C 144.964844 168.546875 145.613281 169.101562 146.277344 169.636719 C 146.9375 170.175781 147.617188 170.691406 148.308594 171.1875 C 149.003906 171.6875 149.710938 172.164062 150.429688 172.621094 C 151.152344 173.078125 151.882812 173.515625 152.628906 173.929688 C 153.375 174.34375 154.132812 174.738281 154.898438 175.109375 C 155.667969 175.480469 156.445312 175.828125 157.234375 176.15625 C 158.019531 176.484375 158.816406 176.789062 159.625 177.070312 C 160.429688 177.351562 161.242188 177.609375 162.0625 177.84375 C 162.882812 178.078125 163.707031 178.289062 164.539062 178.476562 C 165.375 178.664062 166.210938 178.828125 167.050781 178.964844 C 167.894531 179.105469 168.738281 179.222656 169.585938 179.3125 C 170.433594 179.402344 171.285156 179.46875 172.136719 179.511719 C 172.988281 179.554688 173.84375 179.574219 174.695312 179.566406 C 175.546875 179.558594 176.402344 179.527344 177.25 179.472656 C 178.101562 179.417969 178.953125 179.335938 179.800781 179.234375 C 180.644531 179.128906 181.488281 179 182.328125 178.847656 C 183.167969 178.695312 184.003906 178.519531 184.832031 178.320312 C 185.660156 178.121094 186.484375 177.894531 187.300781 177.648438 C 188.117188 177.402344 188.925781 177.128906 189.726562 176.835938 C 190.527344 176.542969 191.320312 176.226562 192.101562 175.886719 C 192.882812 175.546875 193.65625 175.1875 194.417969 174.800781 C 195.179688 174.417969 195.933594 174.015625 196.671875 173.585938 C 197.410156 173.160156 198.136719 172.714844 198.847656 172.246094 C 199.5625 171.777344 200.261719 171.289062 200.945312 170.78125 C 201.632812 170.273438 202.300781 169.746094 202.957031 169.199219 C 203.613281 168.652344 204.25 168.089844 204.875 167.503906 C 205.496094 166.921875 206.101562 166.320312 206.691406 165.703125 C 207.277344 165.085938 207.847656 164.449219 208.402344 163.800781 C 208.953125 163.148438 209.484375 162.484375 210 161.804688 C 210.511719 161.121094 211.007812 160.425781 211.480469 159.71875 C 211.953125 159.007812 212.40625 158.285156 212.839844 157.550781 C 213.273438 156.816406 213.683594 156.066406 214.074219 155.308594 C 214.464844 154.550781 214.832031 153.78125 215.175781 153 C 215.523438 152.21875 215.84375 151.429688 216.144531 150.632812 C 216.445312 149.832031 216.722656 149.027344 216.976562 148.210938 C 217.230469 147.398438 217.460938 146.578125 217.667969 145.75 C 217.875 144.921875 218.058594 144.089844 218.21875 143.25 C 218.378906 142.414062 218.511719 141.570312 218.625 140.726562 C 218.734375 139.878906 218.820312 139.03125 218.882812 138.179688 C 218.945312 137.328125 218.984375 136.476562 218.996094 135.625 C 219.011719 134.769531 219 133.917969 218.964844 133.066406 C 218.929688 132.214844 218.871094 131.363281 218.785156 130.511719 C 218.703125 129.664062 218.59375 128.820312 218.460938 127.976562 C 218.328125 127.132812 218.171875 126.292969 217.992188 125.460938 C 217.8125 124.628906 217.605469 123.800781 217.378906 122.976562 C 217.152344 122.15625 216.898438 121.339844 216.625 120.53125 C 216.351562 119.726562 216.050781 118.925781 215.730469 118.136719 C 215.410156 117.34375 215.066406 116.5625 214.703125 115.792969 C 214.335938 115.023438 213.949219 114.261719 213.542969 113.511719 C 213.132812 112.765625 212.703125 112.027344 212.25 111.304688 C 211.800781 110.578125 211.328125 109.867188 210.835938 109.171875 C 210.34375 108.472656 209.835938 107.792969 209.304688 107.125 C 208.773438 106.457031 208.222656 105.804688 207.65625 105.167969 C 207.085938 104.53125 206.5 103.910156 205.894531 103.308594 C 203.832031 101.242188 201.585938 99.398438 199.15625 97.773438 C 196.730469 96.152344 194.167969 94.78125 191.46875 93.660156 C 188.773438 92.539062 185.992188 91.695312 183.125 91.121094 C 180.261719 90.550781 177.371094 90.261719 174.449219 90.257812 Z M 174.449219 90.257812 " fill-opacity="1" fill-rule="nonzero"/><g clip-path="url(#bd7b396e27)"><path fill="#263d54" d="M 255.582031 222.335938 C 254.75 222.332031 253.949219 222.167969 253.179688 221.847656 C 252.414062 221.527344 251.734375 221.070312 251.148438 220.480469 L 206.023438 175.386719 C 205.730469 175.09375 205.46875 174.773438 205.238281 174.429688 C 205.011719 174.085938 204.816406 173.726562 204.65625 173.34375 C 204.5 172.960938 204.378906 172.566406 204.300781 172.164062 C 204.21875 171.757812 204.179688 171.347656 204.179688 170.933594 C 204.179688 170.523438 204.21875 170.113281 204.300781 169.707031 C 204.378906 169.300781 204.5 168.910156 204.65625 168.527344 C 204.816406 168.144531 205.011719 167.78125 205.238281 167.4375 C 205.46875 167.09375 205.730469 166.777344 206.023438 166.484375 C 206.3125 166.191406 206.632812 165.933594 206.976562 165.703125 C 207.320312 165.472656 207.683594 165.28125 208.0625 165.121094 C 208.445312 164.964844 208.839844 164.84375 209.242188 164.761719 C 209.648438 164.683594 210.058594 164.640625 210.472656 164.640625 C 210.886719 164.640625 211.292969 164.683594 211.699219 164.761719 C 212.105469 164.84375 212.5 164.964844 212.878906 165.121094 C 213.261719 165.28125 213.625 165.472656 213.96875 165.703125 C 214.3125 165.933594 214.628906 166.191406 214.921875 166.484375 L 260.015625 211.609375 C 260.453125 212.050781 260.816406 212.542969 261.109375 213.09375 C 261.398438 213.640625 261.605469 214.21875 261.726562 214.824219 C 261.84375 215.433594 261.875 216.046875 261.8125 216.664062 C 261.753906 217.28125 261.605469 217.875 261.367188 218.449219 C 261.128906 219.019531 260.816406 219.546875 260.421875 220.027344 C 260.03125 220.507812 259.578125 220.921875 259.0625 221.265625 C 258.546875 221.613281 257.992188 221.875 257.402344 222.058594 C 256.808594 222.238281 256.203125 222.332031 255.582031 222.335938 Z M 255.582031 222.335938 " fill-opacity="1" fill-rule="nonzero"/></g><g fill="#263d54" fill-opacity="1"><g transform="translate(58.561297, 260.327136)"><g><path d="M 3.09375 0 L 3.09375 -26.046875 L 8.609375 -26.046875 L 8.609375 0 Z M 3.09375 0 "/></g></g></g><g fill="#263d54" fill-opacity="1"><g transform="translate(71.703336, 260.327136)"><g><path d="M 2.40625 -20.046875 L 6.6875 -20.046875 L 7.375 -18.390625 L 7.53125 -18.390625 C 7.53125 -18.441406 7.75 -18.640625 8.1875 -18.984375 C 8.632812 -19.335938 9.269531 -19.664062 10.09375 -19.96875 C 10.925781 -20.28125 11.957031 -20.4375 13.1875 -20.4375 C 15.238281 -20.4375 16.78125 -19.878906 17.8125 -18.765625 C 18.84375 -17.660156 19.359375 -15.9375 19.359375 -13.59375 L 19.359375 0 L 14.03125 0 L 14.03125 -12.5 C 14.03125 -14.289062 13.832031 -15.503906 13.4375 -16.140625 C 13.050781 -16.785156 12.351562 -17.109375 11.34375 -17.109375 C 10.644531 -17.109375 10.03125 -17 9.5 -16.78125 C 8.96875 -16.570312 8.539062 -16.335938 8.21875 -16.078125 C 7.894531 -15.828125 7.734375 -15.691406 7.734375 -15.671875 L 7.734375 0 L 2.40625 0 Z M 2.40625 -20.046875 "/></g></g></g><g fill="#263d54" fill-opacity="1"><g transform="translate(94.661671, 260.327136)"><g><path d="M 9.53125 0.4375 C 7.875 0.4375 6.410156 0.0234375 5.140625 -0.796875 C 3.878906 -1.628906 2.898438 -2.800781 2.203125 -4.3125 C 1.503906 -5.820312 1.15625 -7.578125 1.15625 -9.578125 C 1.15625 -11.742188 1.488281 -13.644531 2.15625 -15.28125 C 2.832031 -16.925781 3.785156 -18.195312 5.015625 -19.09375 C 6.242188 -19.988281 7.671875 -20.4375 9.296875 -20.4375 C 10.335938 -20.4375 11.203125 -20.320312 11.890625 -20.09375 C 12.585938 -19.875 13.109375 -19.632812 13.453125 -19.375 C 13.804688 -19.125 13.984375 -18.972656 13.984375 -18.921875 L 14.109375 -18.921875 L 14.109375 -29.890625 L 19.4375 -30.21875 L 19.4375 0 L 14.984375 0 L 14.390625 -1.796875 L 14.34375 -1.796875 C 14.34375 -1.722656 14.179688 -1.5 13.859375 -1.125 C 13.546875 -0.75 13.035156 -0.394531 12.328125 -0.0625 C 11.617188 0.269531 10.6875 0.4375 9.53125 0.4375 Z M 10.734375 -2.6875 C 11.410156 -2.6875 11.992188 -2.816406 12.484375 -3.078125 C 12.972656 -3.347656 13.363281 -3.644531 13.65625 -3.96875 C 13.957031 -4.289062 14.109375 -4.476562 14.109375 -4.53125 L 14.109375 -16.078125 C 14.054688 -16.148438 13.898438 -16.285156 13.640625 -16.484375 C 13.390625 -16.691406 13.03125 -16.894531 12.5625 -17.09375 C 12.09375 -17.289062 11.550781 -17.390625 10.9375 -17.390625 C 9.5 -17.390625 8.460938 -16.816406 7.828125 -15.671875 C 7.203125 -14.523438 6.890625 -12.546875 6.890625 -9.734375 C 6.890625 -7.867188 7.03125 -6.425781 7.3125 -5.40625 C 7.59375 -4.394531 8.003906 -3.6875 8.546875 -3.28125 C 9.097656 -2.882812 9.828125 -2.6875 10.734375 -2.6875 Z M 10.734375 -2.6875 "/></g></g></g><g fill="#263d54" fill-opacity="1"><g transform="translate(117.900466, 260.327136)"><g><path d="M 5.09375 -23.046875 C 4.289062 -23.046875 3.582031 -23.3125 2.96875 -23.84375 C 2.351562 -24.457031 2.046875 -25.21875 2.046875 -26.125 C 2.046875 -27.007812 2.351562 -27.757812 2.96875 -28.375 C 3.53125 -28.90625 4.238281 -29.171875 5.09375 -29.171875 C 5.914062 -29.171875 6.597656 -28.921875 7.140625 -28.421875 C 7.722656 -27.804688 8.015625 -27.039062 8.015625 -26.125 C 8.015625 -25.195312 7.722656 -24.425781 7.140625 -23.8125 C 6.546875 -23.300781 5.863281 -23.046875 5.09375 -23.046875 Z M 2.40625 0 L 2.40625 -20.046875 L 7.734375 -20.046875 L 7.734375 0 Z M 2.40625 0 "/></g></g></g><g fill="#263d54" fill-opacity="1"><g transform="translate(129.439852, 260.327136)"><g><path d="M 10.703125 0.4375 C 7.628906 0.4375 5.269531 -0.441406 3.625 -2.203125 C 1.976562 -3.960938 1.15625 -6.53125 1.15625 -9.90625 C 1.15625 -13.15625 2.007812 -15.726562 3.71875 -17.625 C 5.4375 -19.53125 7.804688 -20.484375 10.828125 -20.484375 C 11.648438 -20.484375 12.492188 -20.367188 13.359375 -20.140625 C 14.234375 -19.910156 14.960938 -19.664062 15.546875 -19.40625 C 16.140625 -19.15625 16.515625 -18.992188 16.671875 -18.921875 L 16.15625 -16.359375 C 16.019531 -16.429688 15.679688 -16.582031 15.140625 -16.8125 C 14.609375 -17.039062 13.992188 -17.257812 13.296875 -17.46875 C 12.609375 -17.6875 11.984375 -17.796875 11.421875 -17.796875 C 10.410156 -17.796875 9.582031 -17.582031 8.9375 -17.15625 C 8.289062 -16.726562 7.796875 -15.945312 7.453125 -14.8125 C 7.109375 -13.675781 6.9375 -12.066406 6.9375 -9.984375 C 6.9375 -7.015625 7.304688 -4.984375 8.046875 -3.890625 C 8.796875 -2.796875 9.867188 -2.25 11.265625 -2.25 C 12.203125 -2.25 13.007812 -2.453125 13.6875 -2.859375 C 14.363281 -3.273438 14.890625 -3.71875 15.265625 -4.1875 C 15.640625 -4.65625 15.828125 -4.929688 15.828125 -5.015625 L 17.71875 -3.8125 C 17.71875 -3.644531 17.472656 -3.207031 16.984375 -2.5 C 16.503906 -1.789062 15.742188 -1.125 14.703125 -0.5 C 13.660156 0.125 12.328125 0.4375 10.703125 0.4375 Z M 10.703125 0.4375 "/></g></g></g><g fill="#263d54" fill-opacity="1"><g transform="translate(148.712067, 260.327136)"><g><path d="M 10.546875 0.4375 C 7.578125 0.4375 5.269531 -0.378906 3.625 -2.015625 C 1.976562 -3.660156 1.15625 -6.207031 1.15625 -9.65625 C 1.15625 -13.132812 1.957031 -15.800781 3.5625 -17.65625 C 5.164062 -19.507812 7.332031 -20.4375 10.0625 -20.4375 C 12.539062 -20.4375 14.46875 -19.65625 15.84375 -18.09375 C 17.226562 -16.53125 17.921875 -14.289062 17.921875 -11.375 C 17.921875 -10.707031 17.875 -10.144531 17.78125 -9.6875 C 17.6875 -9.238281 17.625 -8.960938 17.59375 -8.859375 L 6.8125 -8.859375 C 6.84375 -6.453125 7.195312 -4.75 7.875 -3.75 C 8.550781 -2.75 9.65625 -2.25 11.1875 -2.25 C 12.09375 -2.25 12.890625 -2.441406 13.578125 -2.828125 C 14.273438 -3.210938 14.820312 -3.640625 15.21875 -4.109375 C 15.625 -4.578125 15.828125 -4.835938 15.828125 -4.890625 L 17.640625 -3.484375 C 17.640625 -3.378906 17.363281 -2.992188 16.8125 -2.328125 C 16.257812 -1.660156 15.457031 -1.03125 14.40625 -0.4375 C 13.351562 0.144531 12.066406 0.4375 10.546875 0.4375 Z M 12.9375 -11.46875 L 12.9375 -12.390625 C 12.9375 -14.421875 12.722656 -15.84375 12.296875 -16.65625 C 11.867188 -17.46875 11.125 -17.875 10.0625 -17.875 C 9.3125 -17.875 8.710938 -17.6875 8.265625 -17.3125 C 7.828125 -16.9375 7.488281 -16.285156 7.25 -15.359375 C 7.007812 -14.441406 6.863281 -13.144531 6.8125 -11.46875 Z M 12.9375 -11.46875 "/></g></g></g><g fill="#263d54" fill-opacity="1"><g transform="translate(169.106147, 260.327136)"><g/></g></g><g fill="#263d54" fill-opacity="1"><g transform="translate(180.725664, 260.327136)"><g><path d="M 3.09375 -26.046875 L 11.0625 -26.046875 C 14.03125 -26.046875 16.332031 -25.304688 17.96875 -23.828125 C 19.613281 -22.347656 20.4375 -20.148438 20.4375 -17.234375 C 20.4375 -15.148438 19.984375 -13.425781 19.078125 -12.0625 C 18.171875 -10.695312 17.007812 -9.703125 15.59375 -9.078125 C 14.175781 -8.453125 12.707031 -8.140625 11.1875 -8.140625 L 8.609375 -8.140625 L 8.609375 0 L 3.09375 0 Z M 10.546875 -10.703125 C 11.878906 -10.703125 12.863281 -11.160156 13.5 -12.078125 C 14.144531 -13.003906 14.46875 -14.644531 14.46875 -17 C 14.46875 -19.375 14.144531 -21.039062 13.5 -22 C 12.863281 -22.96875 11.878906 -23.453125 10.546875 -23.453125 L 8.609375 -23.453125 L 8.609375 -10.703125 Z M 10.546875 -10.703125 "/></g></g></g><g fill="#263d54" fill-opacity="1"><g transform="translate(203.483658, 260.327136)"><g><path d="M 10.5 0.4375 C 7.507812 0.4375 5.203125 -0.46875 3.578125 -2.28125 C 1.960938 -4.101562 1.15625 -6.679688 1.15625 -10.015625 C 1.15625 -13.359375 1.960938 -15.9375 3.578125 -17.75 C 5.203125 -19.570312 7.507812 -20.484375 10.5 -20.484375 C 13.519531 -20.484375 15.835938 -19.570312 17.453125 -17.75 C 19.066406 -15.9375 19.875 -13.359375 19.875 -10.015625 C 19.875 -6.703125 19.039062 -4.128906 17.375 -2.296875 C 15.707031 -0.472656 13.414062 0.4375 10.5 0.4375 Z M 10.5 -2.203125 C 11.382812 -2.203125 12.085938 -2.457031 12.609375 -2.96875 C 13.128906 -3.476562 13.507812 -4.289062 13.75 -5.40625 C 13.988281 -6.53125 14.109375 -8.066406 14.109375 -10.015625 C 14.109375 -11.960938 13.988281 -13.5 13.75 -14.625 C 13.507812 -15.75 13.132812 -16.554688 12.625 -17.046875 C 12.113281 -17.546875 11.40625 -17.796875 10.5 -17.796875 C 9.59375 -17.796875 8.882812 -17.546875 8.375 -17.046875 C 7.863281 -16.554688 7.488281 -15.75 7.25 -14.625 C 7.007812 -13.5 6.890625 -11.976562 6.890625 -10.0625 C 6.890625 -8.113281 7.007812 -6.570312 7.25 -5.4375 C 7.488281 -4.300781 7.867188 -3.476562 8.390625 -2.96875 C 8.910156 -2.457031 9.613281 -2.203125 10.5 -2.203125 Z M 10.5 -2.203125 "/></g></g></g><g fill="#263d54" fill-opacity="1"><g transform="translate(225.921126, 260.327136)"><g><path d="M 2.40625 0 L 2.40625 -29.890625 L 7.734375 -30.21875 L 7.734375 0 Z M 2.40625 0 "/></g></g></g><g fill="#263d54" fill-opacity="1"><g transform="translate(237.500578, 260.327136)"><g><path d="M 5.40625 -22.796875 L 3.125 -23.171875 L 5.9375 -29.25 L 10.265625 -28.015625 Z M 2.40625 0 L 2.40625 -20.046875 L 7.734375 -20.046875 L 7.734375 0 Z M 2.40625 0 "/></g></g></g><g fill="#263d54" fill-opacity="1"><g transform="translate(249.039964, 260.327136)"><g><path d="M 8.703125 0.4375 C 6.796875 0.4375 5.390625 -0.0234375 4.484375 -0.953125 C 3.578125 -1.890625 3.125 -3.46875 3.125 -5.6875 L 3.125 -16.953125 L 1.203125 -16.953125 L 1.203125 -19.359375 L 3.171875 -19.921875 L 5.734375 -26.6875 L 8.453125 -26.6875 L 8.453125 -20.046875 L 12.859375 -20.046875 L 12.859375 -16.953125 L 8.453125 -16.953125 L 8.453125 -7.046875 C 8.453125 -5.796875 8.507812 -4.84375 8.625 -4.1875 C 8.75 -3.53125 8.945312 -3.070312 9.21875 -2.8125 C 9.488281 -2.5625 9.863281 -2.4375 10.34375 -2.4375 C 10.875 -2.4375 11.351562 -2.488281 11.78125 -2.59375 C 12.207031 -2.707031 12.421875 -2.78125 12.421875 -2.8125 L 12.75 -0.515625 C 12.75 -0.492188 12.597656 -0.398438 12.296875 -0.234375 C 12.003906 -0.078125 11.554688 0.0703125 10.953125 0.21875 C 10.359375 0.363281 9.609375 0.4375 8.703125 0.4375 Z M 8.703125 0.4375 "/></g></g></g><g fill="#263d54" fill-opacity="1"><g transform="translate(264.585995, 260.327136)"><g><path d="M 5.09375 -23.046875 C 4.289062 -23.046875 3.582031 -23.3125 2.96875 -23.84375 C 2.351562 -24.457031 2.046875 -25.21875 2.046875 -26.125 C 2.046875 -27.007812 2.351562 -27.757812 2.96875 -28.375 C 3.53125 -28.90625 4.238281 -29.171875 5.09375 -29.171875 C 5.914062 -29.171875 6.597656 -28.921875 7.140625 -28.421875 C 7.722656 -27.804688 8.015625 -27.039062 8.015625 -26.125 C 8.015625 -25.195312 7.722656 -24.425781 7.140625 -23.8125 C 6.546875 -23.300781 5.863281 -23.046875 5.09375 -23.046875 Z M 2.40625 0 L 2.40625 -20.046875 L 7.734375 -20.046875 L 7.734375 0 Z M 2.40625 0 "/></g></g></g><g fill="#263d54" fill-opacity="1"><g transform="translate(276.12537, 260.327136)"><g><path d="M 10.703125 0.4375 C 7.628906 0.4375 5.269531 -0.441406 3.625 -2.203125 C 1.976562 -3.960938 1.15625 -6.53125 1.15625 -9.90625 C 1.15625 -13.15625 2.007812 -15.726562 3.71875 -17.625 C 5.4375 -19.53125 7.804688 -20.484375 10.828125 -20.484375 C 11.648438 -20.484375 12.492188 -20.367188 13.359375 -20.140625 C 14.234375 -19.910156 14.960938 -19.664062 15.546875 -19.40625 C 16.140625 -19.15625 16.515625 -18.992188 16.671875 -18.921875 L 16.15625 -16.359375 C 16.019531 -16.429688 15.679688 -16.582031 15.140625 -16.8125 C 14.609375 -17.039062 13.992188 -17.257812 13.296875 -17.46875 C 12.609375 -17.6875 11.984375 -17.796875 11.421875 -17.796875 C 10.410156 -17.796875 9.582031 -17.582031 8.9375 -17.15625 C 8.289062 -16.726562 7.796875 -15.945312 7.453125 -14.8125 C 7.109375 -13.675781 6.9375 -12.066406 6.9375 -9.984375 C 6.9375 -7.015625 7.304688 -4.984375 8.046875 -3.890625 C 8.796875 -2.796875 9.867188 -2.25 11.265625 -2.25 C 12.203125 -2.25 13.007812 -2.453125 13.6875 -2.859375 C 14.363281 -3.273438 14.890625 -3.71875 15.265625 -4.1875 C 15.640625 -4.65625 15.828125 -4.929688 15.828125 -5.015625 L 17.71875 -3.8125 C 17.71875 -3.644531 17.472656 -3.207031 16.984375 -2.5 C 16.503906 -1.789062 15.742188 -1.125 14.703125 -0.5 C 13.660156 0.125 12.328125 0.4375 10.703125 0.4375 Z M 10.703125 0.4375 "/></g></g></g><g fill="#263d54" fill-opacity="1"><g transform="translate(295.397585, 260.327136)"><g><path d="M 10.5 0.4375 C 7.507812 0.4375 5.203125 -0.46875 3.578125 -2.28125 C 1.960938 -4.101562 1.15625 -6.679688 1.15625 -10.015625 C 1.15625 -13.359375 1.960938 -15.9375 3.578125 -17.75 C 5.203125 -19.570312 7.507812 -20.484375 10.5 -20.484375 C 13.519531 -20.484375 15.835938 -19.570312 17.453125 -17.75 C 19.066406 -15.9375 19.875 -13.359375 19.875 -10.015625 C 19.875 -6.703125 19.039062 -4.128906 17.375 -2.296875 C 15.707031 -0.472656 13.414062 0.4375 10.5 0.4375 Z M 10.5 -2.203125 C 11.382812 -2.203125 12.085938 -2.457031 12.609375 -2.96875 C 13.128906 -3.476562 13.507812 -4.289062 13.75 -5.40625 C 13.988281 -6.53125 14.109375 -8.066406 14.109375 -10.015625 C 14.109375 -11.960938 13.988281 -13.5 13.75 -14.625 C 13.507812 -15.75 13.132812 -16.554688 12.625 -17.046875 C 12.113281 -17.546875 11.40625 -17.796875 10.5 -17.796875 C 9.59375 -17.796875 8.882812 -17.546875 8.375 -17.046875 C 7.863281 -16.554688 7.488281 -15.75 7.25 -14.625 C 7.007812 -13.5 6.890625 -11.976562 6.890625 -10.0625 C 6.890625 -8.113281 7.007812 -6.570312 7.25 -5.4375 C 7.488281 -4.300781 7.867188 -3.476562 8.390625 -2.96875 C 8.910156 -2.457031 9.613281 -2.203125 10.5 -2.203125 Z M 10.5 -2.203125 "/></g></g></g><g fill="#263d54" fill-opacity="1"><g transform="translate(131.264528, 307.812431)"><g><path d="M 13.34375 0.40625 C 9.738281 0.40625 6.929688 -0.757812 4.921875 -3.09375 C 2.921875 -5.4375 1.921875 -8.664062 1.921875 -12.78125 C 1.921875 -15.53125 2.378906 -17.929688 3.296875 -19.984375 C 4.222656 -22.046875 5.535156 -23.628906 7.234375 -24.734375 C 8.929688 -25.847656 10.898438 -26.40625 13.140625 -26.40625 C 14.367188 -26.40625 15.550781 -26.242188 16.6875 -25.921875 C 17.820312 -25.609375 18.789062 -25.25 19.59375 -24.84375 C 20.394531 -24.445312 20.796875 -24.234375 20.796875 -24.203125 L 20.4375 -22.28125 C 20.4375 -22.3125 20.046875 -22.515625 19.265625 -22.890625 C 18.492188 -23.265625 17.59375 -23.609375 16.5625 -23.921875 C 15.539062 -24.242188 14.507812 -24.40625 13.46875 -24.40625 C 10.875 -24.40625 8.84375 -23.421875 7.375 -21.453125 C 5.90625 -19.492188 5.171875 -16.628906 5.171875 -12.859375 C 5.171875 -9.148438 5.914062 -6.347656 7.40625 -4.453125 C 8.90625 -2.554688 11.003906 -1.609375 13.703125 -1.609375 C 15.117188 -1.609375 16.359375 -1.898438 17.421875 -2.484375 C 18.492188 -3.066406 19.34375 -3.691406 19.96875 -4.359375 C 20.601562 -5.035156 20.921875 -5.425781 20.921875 -5.53125 L 22.046875 -4.25 C 22.046875 -4.113281 21.695312 -3.648438 21 -2.859375 C 20.300781 -2.078125 19.304688 -1.335938 18.015625 -0.640625 C 16.722656 0.0546875 15.164062 0.40625 13.34375 0.40625 Z M 13.34375 0.40625 "/></g></g></g><g fill="#263d54" fill-opacity="1"><g transform="translate(155.504989, 307.812431)"><g><path d="M 0.921875 0 L 9.703125 -26.046875 L 13.265625 -26.046875 L 21.875 0 L 18.71875 0 L 15.984375 -8.015625 L 5.765625 -8.015625 L 3.046875 0 Z M 6.328125 -9.65625 L 15.46875 -9.65625 L 10.9375 -23.71875 Z M 6.328125 -9.65625 "/></g></g></g><g fill="#263d54" fill-opacity="1"><g transform="translate(179.66532, 307.812431)"><g><path d="M 9.453125 0.40625 C 7.722656 0.40625 6.28125 0.148438 5.125 -0.359375 C 3.976562 -0.867188 3.128906 -1.410156 2.578125 -1.984375 C 2.035156 -2.554688 1.765625 -2.894531 1.765625 -3 L 2.765625 -4.5625 C 2.765625 -4.488281 3.015625 -4.191406 3.515625 -3.671875 C 4.023438 -3.148438 4.769531 -2.664062 5.75 -2.21875 C 6.726562 -1.78125 7.925781 -1.5625 9.34375 -1.5625 C 11.019531 -1.5625 12.335938 -2.046875 13.296875 -3.015625 C 14.265625 -3.992188 14.75 -5.207031 14.75 -6.65625 C 14.75 -7.644531 14.507812 -8.472656 14.03125 -9.140625 C 13.550781 -9.804688 12.957031 -10.335938 12.25 -10.734375 C 11.539062 -11.140625 10.582031 -11.597656 9.375 -12.109375 C 7.988281 -12.660156 6.867188 -13.191406 6.015625 -13.703125 C 5.160156 -14.210938 4.4375 -14.914062 3.84375 -15.8125 C 3.257812 -16.707031 2.96875 -17.847656 2.96875 -19.234375 C 2.96875 -21.429688 3.660156 -23.175781 5.046875 -24.46875 C 6.441406 -25.757812 8.300781 -26.40625 10.625 -26.40625 C 11.769531 -26.40625 12.800781 -26.238281 13.71875 -25.90625 C 14.644531 -25.570312 15.390625 -25.210938 15.953125 -24.828125 C 16.515625 -24.441406 16.796875 -24.222656 16.796875 -24.171875 L 16.390625 -22.40625 C 16.390625 -22.457031 16.117188 -22.671875 15.578125 -23.046875 C 15.046875 -23.421875 14.363281 -23.765625 13.53125 -24.078125 C 12.707031 -24.398438 11.789062 -24.5625 10.78125 -24.5625 C 9.28125 -24.5625 8.101562 -24.144531 7.25 -23.3125 C 6.394531 -22.488281 5.96875 -21.367188 5.96875 -19.953125 C 5.96875 -18.960938 6.203125 -18.140625 6.671875 -17.484375 C 7.140625 -16.835938 7.726562 -16.3125 8.4375 -15.90625 C 9.144531 -15.507812 10.085938 -15.070312 11.265625 -14.59375 C 12.679688 -14 13.816406 -13.441406 14.671875 -12.921875 C 15.523438 -12.398438 16.25 -11.671875 16.84375 -10.734375 C 17.445312 -9.804688 17.75 -8.609375 17.75 -7.140625 C 17.75 -5.660156 17.40625 -4.351562 16.71875 -3.21875 C 16.039062 -2.082031 15.070312 -1.191406 13.8125 -0.546875 C 12.5625 0.0859375 11.109375 0.40625 9.453125 0.40625 Z M 9.453125 0.40625 "/></g></g></g><g fill="#263d54" fill-opacity="1"><g transform="translate(200.700464, 307.812431)"><g><path d="M 3.765625 0 L 3.765625 -26.046875 L 6.8125 -26.046875 L 6.8125 -1.921875 L 18.390625 -1.921875 L 18.390625 0 Z M 3.765625 0 "/></g></g></g><g fill="#263d54" fill-opacity="1"><g transform="translate(220.974335, 307.812431)"><g><path d="M 0.921875 0 L 9.703125 -26.046875 L 13.265625 -26.046875 L 21.875 0 L 18.71875 0 L 15.984375 -8.015625 L 5.765625 -8.015625 L 3.046875 0 Z M 6.328125 -9.65625 L 15.46875 -9.65625 L 10.9375 -23.71875 Z M 6.328125 -9.65625 "/></g></g></g></svg>