<svg xmlns="http://www.w3.org/2000/svg" xmlns:xlink="http://www.w3.org/1999/xlink" width="500" zoomAndPan="magnify" viewBox="0 0 375 374.999991" height="500" preserveAspectRatio="xMidYMid meet" version="1.0"><defs><filter x="0%" y="0%" width="100%" height="100%" id="73db2b6b6b"><feColorMatrix values="0 0 0 0 1 0 0 0 0 1 0 0 0 0 1 0 0 0 1 0" color-interpolation-filters="sRGB"/></filter><g/><mask id="b58b8a8bd5"><g filter="url(#73db2b6b6b)"><rect x="-37.5" width="450" fill="#000000" y="-37.499999" height="449.999989" fill-opacity="0.85"/></g></mask><clipPath id="79c9c060d6"><path d="M 0.425781 0.425781 L 334.574219 0.425781 L 334.574219 334.574219 L 0.425781 334.574219 Z M 0.425781 0.425781 " clip-rule="nonzero"/></clipPath><clipPath id="4649f8a1aa"><path d="M 167.5 0.425781 C 75.226562 0.425781 0.425781 75.226562 0.425781 167.5 C 0.425781 259.773438 75.226562 334.574219 167.5 334.574219 C 259.773438 334.574219 334.574219 259.773438 334.574219 167.5 C 334.574219 75.226562 259.773438 0.425781 167.5 0.425781 Z M 167.5 0.425781 " clip-rule="nonzero"/></clipPath><clipPath id="a9bb30d26e"><path d="M 0.425781 0.425781 L 334.574219 0.425781 L 334.574219 334.574219 L 0.425781 334.574219 Z M 0.425781 0.425781 " clip-rule="nonzero"/></clipPath><clipPath id="5c9c2776f4"><path d="M 167.5 0.425781 C 75.226562 0.425781 0.425781 75.226562 0.425781 167.5 C 0.425781 259.773438 75.226562 334.574219 167.5 334.574219 C 259.773438 334.574219 334.574219 259.773438 334.574219 167.5 C 334.574219 75.226562 259.773438 0.425781 167.5 0.425781 Z M 167.5 0.425781 " clip-rule="nonzero"/></clipPath><clipPath id="95720b3c24"><rect x="0" width="335" y="0" height="335"/></clipPath><clipPath id="dccdc7bb61"><rect x="0" width="335" y="0" height="335"/></clipPath><mask id="fe75ba137b"><g filter="url(#73db2b6b6b)"><rect x="-37.5" width="450" fill="#000000" y="-37.499999" height="449.999989" fill-opacity="0.85"/></g></mask><clipPath id="6f710c5f23"><path d="M 0.894531 0.894531 L 320.105469 0.894531 L 320.105469 320.105469 L 0.894531 320.105469 Z M 0.894531 0.894531 " clip-rule="nonzero"/></clipPath><clipPath id="94c190ee3d"><path d="M 160.5 0.894531 C 72.351562 0.894531 0.894531 72.351562 0.894531 160.5 C 0.894531 248.648438 72.351562 320.105469 160.5 320.105469 C 248.648438 320.105469 320.105469 248.648438 320.105469 160.5 C 320.105469 72.351562 248.648438 0.894531 160.5 0.894531 Z M 160.5 0.894531 " clip-rule="nonzero"/></clipPath><clipPath id="ba02a8dc1d"><path d="M 0.894531 0.894531 L 320.105469 0.894531 L 320.105469 320.105469 L 0.894531 320.105469 Z M 0.894531 0.894531 " clip-rule="nonzero"/></clipPath><clipPath id="ee501b8b70"><path d="M 160.5 0.894531 C 72.351562 0.894531 0.894531 72.351562 0.894531 160.5 C 0.894531 248.648438 72.351562 320.105469 160.5 320.105469 C 248.648438 320.105469 320.105469 248.648438 320.105469 160.5 C 320.105469 72.351562 248.648438 0.894531 160.5 0.894531 Z M 160.5 0.894531 " clip-rule="nonzero"/></clipPath><clipPath id="d1de74dfdc"><rect x="0" width="321" y="0" height="321"/></clipPath><clipPath id="88da63fed1"><rect x="0" width="321" y="0" height="321"/></clipPath><clipPath id="37d850b40b"><path d="M 36.390625 36.390625 L 338.609375 36.390625 L 338.609375 338.609375 L 36.390625 338.609375 Z M 36.390625 36.390625 " clip-rule="nonzero"/></clipPath><clipPath id="f973cfaaa1"><path d="M 187.5 36.390625 C 104.042969 36.390625 36.390625 104.042969 36.390625 187.5 C 36.390625 270.957031 104.042969 338.609375 187.5 338.609375 C 270.957031 338.609375 338.609375 270.957031 338.609375 187.5 C 338.609375 104.042969 270.957031 36.390625 187.5 36.390625 Z M 187.5 36.390625 " clip-rule="nonzero"/></clipPath><clipPath id="688e3cc156"><path d="M 0.390625 0.390625 L 302.609375 0.390625 L 302.609375 302.609375 L 0.390625 302.609375 Z M 0.390625 0.390625 " clip-rule="nonzero"/></clipPath><clipPath id="b4b965ead7"><path d="M 151.5 0.390625 C 68.042969 0.390625 0.390625 68.042969 0.390625 151.5 C 0.390625 234.957031 68.042969 302.609375 151.5 302.609375 C 234.957031 302.609375 302.609375 234.957031 302.609375 151.5 C 302.609375 68.042969 234.957031 0.390625 151.5 0.390625 Z M 151.5 0.390625 " clip-rule="nonzero"/></clipPath><clipPath id="0e9c2acc81"><rect x="0" width="303" y="0" height="303"/></clipPath><clipPath id="bc594c3412"><path d="M 86.570312 92.367188 L 288.320312 92.367188 L 288.320312 213.117188 L 86.570312 213.117188 Z M 86.570312 92.367188 " clip-rule="nonzero"/></clipPath></defs><g mask="url(#b58b8a8bd5)"><g transform="matrix(1, 0, 0, 1, 20, 20)"><g clip-path="url(#dccdc7bb61)"><g clip-path="url(#79c9c060d6)"><g clip-path="url(#4649f8a1aa)"><g><g clip-path="url(#95720b3c24)"><g clip-path="url(#a9bb30d26e)"><g clip-path="url(#5c9c2776f4)"><path fill="#263d54" d="M 0.425781 0.425781 L 334.574219 0.425781 L 334.574219 334.574219 L 0.425781 334.574219 Z M 0.425781 0.425781 " fill-opacity="1" fill-rule="nonzero"/></g></g></g></g></g></g></g></g></g><g mask="url(#fe75ba137b)"><g transform="matrix(1, 0, 0, 1, 27, 27)"><g clip-path="url(#88da63fed1)"><g clip-path="url(#6f710c5f23)"><g clip-path="url(#94c190ee3d)"><g transform="matrix(1, 0, 0, 1, 0.000000000000003553, 0)"><g clip-path="url(#d1de74dfdc)"><g clip-path="url(#ba02a8dc1d)"><g clip-path="url(#ee501b8b70)"><path fill="#bf1b27" d="M 0.894531 0.894531 L 320.105469 0.894531 L 320.105469 320.105469 L 0.894531 320.105469 Z M 0.894531 0.894531 " fill-opacity="1" fill-rule="nonzero"/></g></g></g></g></g></g></g></g></g><g clip-path="url(#37d850b40b)"><g clip-path="url(#f973cfaaa1)"><g transform="matrix(1, 0, 0, 1, 36, 36)"><g clip-path="url(#0e9c2acc81)"><g clip-path="url(#688e3cc156)"><g clip-path="url(#b4b965ead7)"><path fill="#ffffff" d="M 0.390625 0.390625 L 302.609375 0.390625 L 302.609375 302.609375 L 0.390625 302.609375 Z M 0.390625 0.390625 " fill-opacity="1" fill-rule="nonzero"/></g></g></g></g></g></g><g clip-path="url(#bc594c3412)"><path fill="#263d54" d="M 239.355469 92.390625 C 237.105469 92.390625 235.292969 94.203125 235.292969 96.453125 L 235.292969 209.023438 C 235.292969 211.269531 237.105469 213.082031 239.355469 213.082031 L 284.371094 213.082031 C 286.621094 213.082031 288.429688 211.269531 288.429688 209.023438 L 288.429688 96.453125 C 288.429688 94.203125 286.621094 92.390625 284.371094 92.390625 Z M 89.867188 92.804688 C 88.042969 92.804688 86.570312 94.273438 86.570312 96.097656 L 86.570312 183.011719 C 86.570312 184.835938 88.042969 186.304688 89.867188 186.304688 L 146.539062 186.304688 L 145.15625 203.609375 L 124.902344 203.609375 C 123.761719 203.609375 122.84375 204.132812 122.84375 204.785156 L 122.84375 207.375 C 122.84375 208.027344 123.761719 208.550781 124.902344 208.550781 L 187.101562 208.550781 C 188.242188 208.550781 189.160156 208.027344 189.160156 207.375 L 189.160156 204.785156 C 189.160156 204.132812 188.242188 203.609375 187.101562 203.609375 L 167.667969 203.609375 L 166.289062 186.304688 L 222.960938 186.304688 C 224.785156 186.304688 226.253906 184.835938 226.253906 183.011719 L 226.253906 96.097656 C 226.253906 94.273438 224.785156 92.804688 222.960938 92.804688 L 89.863281 92.804688 Z M 90.046875 97.335938 L 222.785156 97.335938 L 222.785156 181.78125 L 90.046875 181.78125 Z M 246.410156 105.160156 L 275.269531 105.160156 C 275.71875 105.160156 276.082031 105.523438 276.082031 105.972656 L 276.082031 106.410156 C 276.082031 106.859375 275.71875 107.222656 275.269531 107.222656 L 246.410156 107.222656 C 245.960938 107.222656 245.597656 106.859375 245.597656 106.410156 L 245.597656 105.972656 C 245.597656 105.523438 245.960938 105.160156 246.410156 105.160156 Z M 246.410156 110.191406 L 275.269531 110.191406 C 275.71875 110.191406 276.082031 110.554688 276.082031 111.003906 L 276.082031 111.441406 C 276.082031 111.890625 275.71875 112.253906 275.269531 112.253906 L 246.410156 112.253906 C 245.960938 112.253906 245.597656 111.890625 245.597656 111.441406 L 245.597656 111.003906 C 245.597656 110.554688 245.960938 110.191406 246.410156 110.191406 Z M 271.546875 119.988281 C 272.039062 119.988281 272.511719 120.085938 272.96875 120.273438 C 273.421875 120.460938 273.824219 120.726562 274.171875 121.074219 C 274.519531 121.421875 274.785156 121.824219 274.972656 122.277344 C 275.160156 122.734375 275.257812 123.207031 275.257812 123.699219 C 275.257812 124.1875 275.160156 124.660156 274.972656 125.117188 C 274.785156 125.570312 274.519531 125.972656 274.171875 126.320312 C 273.824219 126.667969 273.421875 126.933594 272.96875 127.121094 C 272.511719 127.3125 272.039062 127.40625 271.546875 127.40625 C 271.058594 127.40625 270.585938 127.3125 270.128906 127.121094 C 269.675781 126.933594 269.273438 126.667969 268.925781 126.320312 C 268.578125 125.972656 268.3125 125.570312 268.125 125.117188 C 267.933594 124.660156 267.839844 124.1875 267.839844 123.699219 C 267.839844 123.207031 267.933594 122.734375 268.125 122.277344 C 268.3125 121.824219 268.578125 121.421875 268.925781 121.074219 C 269.273438 120.726562 269.675781 120.460938 270.128906 120.273438 C 270.585938 120.085938 271.058594 119.988281 271.546875 119.988281 Z M 245.585938 142.027344 L 274.445312 142.027344 C 274.894531 142.027344 275.257812 142.390625 275.257812 142.839844 L 275.257812 143.277344 C 275.257812 143.726562 274.894531 144.085938 274.445312 144.085938 L 245.585938 144.085938 C 245.136719 144.085938 244.773438 143.726562 244.773438 143.277344 L 244.773438 142.839844 C 244.773438 142.390625 245.136719 142.027344 245.585938 142.027344 Z M 245.585938 148.179688 L 274.445312 148.179688 C 274.894531 148.179688 275.257812 148.539062 275.257812 148.988281 L 275.257812 149.425781 C 275.257812 149.875 274.894531 150.238281 274.445312 150.238281 L 245.585938 150.238281 C 245.136719 150.238281 244.773438 149.875 244.773438 149.425781 L 244.773438 148.988281 C 244.773438 148.539062 245.136719 148.179688 245.585938 148.179688 Z M 245.585938 154.328125 L 274.445312 154.328125 C 274.894531 154.328125 275.257812 154.691406 275.257812 155.140625 L 275.257812 155.578125 C 275.257812 156.027344 274.894531 156.386719 274.445312 156.386719 L 245.585938 156.386719 C 245.136719 156.386719 244.773438 156.027344 244.773438 155.578125 L 244.773438 155.140625 C 244.773438 154.691406 245.136719 154.328125 245.585938 154.328125 Z M 245.585938 160.480469 L 274.445312 160.480469 C 274.894531 160.480469 275.257812 160.839844 275.257812 161.289062 L 275.257812 161.726562 C 275.257812 162.175781 274.894531 162.539062 274.445312 162.539062 L 245.585938 162.539062 C 245.136719 162.539062 244.773438 162.175781 244.773438 161.726562 L 244.773438 161.289062 C 244.773438 160.839844 245.136719 160.480469 245.585938 160.480469 Z M 269.476562 181.367188 L 277.328125 181.367188 C 278.691406 181.367188 279.785156 182.464844 279.785156 183.824219 L 279.785156 194.972656 C 279.785156 196.335938 278.691406 197.429688 277.328125 197.429688 L 269.476562 197.429688 C 268.113281 197.429688 267.015625 196.335938 267.015625 194.972656 L 267.015625 183.824219 C 267.015625 182.464844 268.113281 181.367188 269.476562 181.367188 Z M 269.476562 181.367188 " fill-opacity="1" fill-rule="nonzero"/></g><g fill="#263d54" fill-opacity="1"><g transform="translate(84.26064, 260.327136)"><g><path d="M 3.09375 -26.046875 L 11.109375 -26.046875 C 14.046875 -26.046875 16.34375 -25.332031 18 -23.90625 C 19.65625 -22.476562 20.484375 -20.46875 20.484375 -17.875 C 20.484375 -16.1875 20.066406 -14.722656 19.234375 -13.484375 C 18.410156 -12.242188 17.328125 -11.273438 15.984375 -10.578125 L 22 0 L 15.625 0 L 10.734375 -9.453125 L 8.609375 -9.453125 L 8.609375 0 L 3.09375 0 Z M 10.65625 -12.109375 C 11.644531 -12.109375 12.410156 -12.273438 12.953125 -12.609375 C 13.503906 -12.941406 13.898438 -13.507812 14.140625 -14.3125 C 14.390625 -15.113281 14.515625 -16.222656 14.515625 -17.640625 C 14.515625 -19.722656 14.210938 -21.210938 13.609375 -22.109375 C 13.003906 -23.003906 11.984375 -23.453125 10.546875 -23.453125 L 8.609375 -23.453125 L 8.609375 -12.109375 Z M 10.65625 -12.109375 "/></g></g></g><g fill="#263d54" fill-opacity="1"><g transform="translate(108.821627, 260.327136)"><g><path d="M 10.546875 0.4375 C 7.578125 0.4375 5.269531 -0.378906 3.625 -2.015625 C 1.976562 -3.660156 1.15625 -6.207031 1.15625 -9.65625 C 1.15625 -13.132812 1.957031 -15.800781 3.5625 -17.65625 C 5.164062 -19.507812 7.332031 -20.4375 10.0625 -20.4375 C 12.539062 -20.4375 14.46875 -19.65625 15.84375 -18.09375 C 17.226562 -16.53125 17.921875 -14.289062 17.921875 -11.375 C 17.921875 -10.707031 17.875 -10.144531 17.78125 -9.6875 C 17.6875 -9.238281 17.625 -8.960938 17.59375 -8.859375 L 6.8125 -8.859375 C 6.84375 -6.453125 7.195312 -4.75 7.875 -3.75 C 8.550781 -2.75 9.65625 -2.25 11.1875 -2.25 C 12.09375 -2.25 12.890625 -2.441406 13.578125 -2.828125 C 14.273438 -3.210938 14.820312 -3.640625 15.21875 -4.109375 C 15.625 -4.578125 15.828125 -4.835938 15.828125 -4.890625 L 17.640625 -3.484375 C 17.640625 -3.378906 17.363281 -2.992188 16.8125 -2.328125 C 16.257812 -1.660156 15.457031 -1.03125 14.40625 -0.4375 C 13.351562 0.144531 12.066406 0.4375 10.546875 0.4375 Z M 12.9375 -11.46875 L 12.9375 -12.390625 C 12.9375 -14.421875 12.722656 -15.84375 12.296875 -16.65625 C 11.867188 -17.46875 11.125 -17.875 10.0625 -17.875 C 9.3125 -17.875 8.710938 -17.6875 8.265625 -17.3125 C 7.828125 -16.9375 7.488281 -16.285156 7.25 -15.359375 C 7.007812 -14.441406 6.863281 -13.144531 6.8125 -11.46875 Z M 12.9375 -11.46875 "/></g></g></g><g fill="#263d54" fill-opacity="1"><g transform="translate(129.215707, 260.327136)"><g><path d="M 2.40625 -20.046875 L 6.6875 -20.046875 L 7.421875 -18.234375 L 7.53125 -18.234375 C 7.53125 -18.285156 7.753906 -18.503906 8.203125 -18.890625 C 8.660156 -19.285156 9.289062 -19.648438 10.09375 -19.984375 C 10.894531 -20.316406 11.859375 -20.484375 12.984375 -20.484375 C 15.359375 -20.484375 17.226562 -19.570312 18.59375 -17.75 C 19.957031 -15.9375 20.640625 -13.492188 20.640625 -10.421875 C 20.640625 -8.253906 20.316406 -6.347656 19.671875 -4.703125 C 19.035156 -3.066406 18.125 -1.800781 16.9375 -0.90625 C 15.75 -0.0078125 14.335938 0.4375 12.703125 0.4375 C 11.660156 0.4375 10.78125 0.320312 10.0625 0.09375 C 9.34375 -0.125 8.796875 -0.359375 8.421875 -0.609375 C 8.046875 -0.867188 7.859375 -1.023438 7.859375 -1.078125 L 7.734375 -1.078125 L 7.734375 10.015625 L 2.40625 10.1875 Z M 10.703125 -2.609375 C 11.710938 -2.609375 12.519531 -2.847656 13.125 -3.328125 C 13.726562 -3.804688 14.175781 -4.597656 14.46875 -5.703125 C 14.757812 -6.816406 14.90625 -8.347656 14.90625 -10.296875 C 14.90625 -12.140625 14.765625 -13.578125 14.484375 -14.609375 C 14.203125 -15.640625 13.785156 -16.351562 13.234375 -16.75 C 12.691406 -17.15625 11.984375 -17.359375 11.109375 -17.359375 C 10.460938 -17.359375 9.890625 -17.234375 9.390625 -16.984375 C 8.898438 -16.742188 8.515625 -16.488281 8.234375 -16.21875 C 7.953125 -15.957031 7.785156 -15.757812 7.734375 -15.625 L 7.734375 -3.921875 C 7.785156 -3.847656 7.914062 -3.707031 8.125 -3.5 C 8.34375 -3.300781 8.671875 -3.101562 9.109375 -2.90625 C 9.554688 -2.707031 10.085938 -2.609375 10.703125 -2.609375 Z M 10.703125 -2.609375 "/></g></g></g><g fill="#263d54" fill-opacity="1"><g transform="translate(152.454502, 260.327136)"><g><path d="M 10.5 0.4375 C 7.507812 0.4375 5.203125 -0.46875 3.578125 -2.28125 C 1.960938 -4.101562 1.15625 -6.679688 1.15625 -10.015625 C 1.15625 -13.359375 1.960938 -15.9375 3.578125 -17.75 C 5.203125 -19.570312 7.507812 -20.484375 10.5 -20.484375 C 13.519531 -20.484375 15.835938 -19.570312 17.453125 -17.75 C 19.066406 -15.9375 19.875 -13.359375 19.875 -10.015625 C 19.875 -6.703125 19.039062 -4.128906 17.375 -2.296875 C 15.707031 -0.472656 13.414062 0.4375 10.5 0.4375 Z M 10.5 -2.203125 C 11.382812 -2.203125 12.085938 -2.457031 12.609375 -2.96875 C 13.128906 -3.476562 13.507812 -4.289062 13.75 -5.40625 C 13.988281 -6.53125 14.109375 -8.066406 14.109375 -10.015625 C 14.109375 -11.960938 13.988281 -13.5 13.75 -14.625 C 13.507812 -15.75 13.132812 -16.554688 12.625 -17.046875 C 12.113281 -17.546875 11.40625 -17.796875 10.5 -17.796875 C 9.59375 -17.796875 8.882812 -17.546875 8.375 -17.046875 C 7.863281 -16.554688 7.488281 -15.75 7.25 -14.625 C 7.007812 -13.5 6.890625 -11.976562 6.890625 -10.0625 C 6.890625 -8.113281 7.007812 -6.570312 7.25 -5.4375 C 7.488281 -4.300781 7.867188 -3.476562 8.390625 -2.96875 C 8.910156 -2.457031 9.613281 -2.203125 10.5 -2.203125 Z M 10.5 -2.203125 "/></g></g></g><g fill="#263d54" fill-opacity="1"><g transform="translate(174.89197, 260.327136)"><g><path d="M 8.015625 0.4375 C 6.460938 0.4375 5.164062 0.21875 4.125 -0.21875 C 3.082031 -0.65625 2.296875 -1.128906 1.765625 -1.640625 C 1.234375 -2.148438 0.96875 -2.457031 0.96875 -2.5625 L 2.4375 -4.65625 C 2.4375 -4.59375 2.648438 -4.347656 3.078125 -3.921875 C 3.515625 -3.492188 4.054688 -3.097656 4.703125 -2.734375 C 5.359375 -2.378906 6.085938 -2.203125 6.890625 -2.203125 C 7.878906 -2.203125 8.640625 -2.457031 9.171875 -2.96875 C 9.710938 -3.476562 9.984375 -4.144531 9.984375 -4.96875 C 9.984375 -5.769531 9.703125 -6.40625 9.140625 -6.875 C 8.578125 -7.34375 7.734375 -7.832031 6.609375 -8.34375 C 5.566406 -8.84375 4.734375 -9.300781 4.109375 -9.71875 C 3.484375 -10.132812 2.941406 -10.707031 2.484375 -11.4375 C 2.023438 -12.175781 1.796875 -13.117188 1.796875 -14.265625 C 1.796875 -16.242188 2.476562 -17.773438 3.84375 -18.859375 C 5.207031 -19.941406 6.890625 -20.484375 8.890625 -20.484375 C 9.753906 -20.484375 10.613281 -20.375 11.46875 -20.15625 C 12.320312 -19.945312 13.023438 -19.734375 13.578125 -19.515625 C 14.140625 -19.304688 14.503906 -19.160156 14.671875 -19.078125 L 13.953125 -16.390625 C 13.816406 -16.472656 13.503906 -16.632812 13.015625 -16.875 C 12.535156 -17.113281 11.957031 -17.335938 11.28125 -17.546875 C 10.601562 -17.765625 9.984375 -17.875 9.421875 -17.875 C 8.585938 -17.875 7.941406 -17.671875 7.484375 -17.265625 C 7.035156 -16.867188 6.8125 -16.335938 6.8125 -15.671875 C 6.8125 -14.867188 7.109375 -14.21875 7.703125 -13.71875 C 8.304688 -13.226562 9.222656 -12.703125 10.453125 -12.140625 C 11.554688 -11.609375 12.441406 -11.117188 13.109375 -10.671875 C 13.773438 -10.234375 14.347656 -9.640625 14.828125 -8.890625 C 15.304688 -8.148438 15.546875 -7.21875 15.546875 -6.09375 C 15.546875 -4.144531 14.894531 -2.566406 13.59375 -1.359375 C 12.300781 -0.160156 10.441406 0.4375 8.015625 0.4375 Z M 8.015625 0.4375 "/></g></g></g><g fill="#263d54" fill-opacity="1"><g transform="translate(193.002256, 260.327136)"><g><path d="M 5.09375 -23.046875 C 4.289062 -23.046875 3.582031 -23.3125 2.96875 -23.84375 C 2.351562 -24.457031 2.046875 -25.21875 2.046875 -26.125 C 2.046875 -27.007812 2.351562 -27.757812 2.96875 -28.375 C 3.53125 -28.90625 4.238281 -29.171875 5.09375 -29.171875 C 5.914062 -29.171875 6.597656 -28.921875 7.140625 -28.421875 C 7.722656 -27.804688 8.015625 -27.039062 8.015625 -26.125 C 8.015625 -25.195312 7.722656 -24.425781 7.140625 -23.8125 C 6.546875 -23.300781 5.863281 -23.046875 5.09375 -23.046875 Z M 2.40625 0 L 2.40625 -20.046875 L 7.734375 -20.046875 L 7.734375 0 Z M 2.40625 0 "/></g></g></g><g fill="#263d54" fill-opacity="1"><g transform="translate(204.541642, 260.327136)"><g><path d="M 8.703125 0.4375 C 6.796875 0.4375 5.390625 -0.0234375 4.484375 -0.953125 C 3.578125 -1.890625 3.125 -3.46875 3.125 -5.6875 L 3.125 -16.953125 L 1.203125 -16.953125 L 1.203125 -19.359375 L 3.171875 -19.921875 L 5.734375 -26.6875 L 8.453125 -26.6875 L 8.453125 -20.046875 L 12.859375 -20.046875 L 12.859375 -16.953125 L 8.453125 -16.953125 L 8.453125 -7.046875 C 8.453125 -5.796875 8.507812 -4.84375 8.625 -4.1875 C 8.75 -3.53125 8.945312 -3.070312 9.21875 -2.8125 C 9.488281 -2.5625 9.863281 -2.4375 10.34375 -2.4375 C 10.875 -2.4375 11.351562 -2.488281 11.78125 -2.59375 C 12.207031 -2.707031 12.421875 -2.78125 12.421875 -2.8125 L 12.75 -0.515625 C 12.75 -0.492188 12.597656 -0.398438 12.296875 -0.234375 C 12.003906 -0.078125 11.554688 0.0703125 10.953125 0.21875 C 10.359375 0.363281 9.609375 0.4375 8.703125 0.4375 Z M 8.703125 0.4375 "/></g></g></g><g fill="#263d54" fill-opacity="1"><g transform="translate(220.087673, 260.327136)"><g><path d="M 10.5 0.4375 C 7.507812 0.4375 5.203125 -0.46875 3.578125 -2.28125 C 1.960938 -4.101562 1.15625 -6.679688 1.15625 -10.015625 C 1.15625 -13.359375 1.960938 -15.9375 3.578125 -17.75 C 5.203125 -19.570312 7.507812 -20.484375 10.5 -20.484375 C 13.519531 -20.484375 15.835938 -19.570312 17.453125 -17.75 C 19.066406 -15.9375 19.875 -13.359375 19.875 -10.015625 C 19.875 -6.703125 19.039062 -4.128906 17.375 -2.296875 C 15.707031 -0.472656 13.414062 0.4375 10.5 0.4375 Z M 10.5 -2.203125 C 11.382812 -2.203125 12.085938 -2.457031 12.609375 -2.96875 C 13.128906 -3.476562 13.507812 -4.289062 13.75 -5.40625 C 13.988281 -6.53125 14.109375 -8.066406 14.109375 -10.015625 C 14.109375 -11.960938 13.988281 -13.5 13.75 -14.625 C 13.507812 -15.75 13.132812 -16.554688 12.625 -17.046875 C 12.113281 -17.546875 11.40625 -17.796875 10.5 -17.796875 C 9.59375 -17.796875 8.882812 -17.546875 8.375 -17.046875 C 7.863281 -16.554688 7.488281 -15.75 7.25 -14.625 C 7.007812 -13.5 6.890625 -11.976562 6.890625 -10.0625 C 6.890625 -8.113281 7.007812 -6.570312 7.25 -5.4375 C 7.488281 -4.300781 7.867188 -3.476562 8.390625 -2.96875 C 8.910156 -2.457031 9.613281 -2.203125 10.5 -2.203125 Z M 10.5 -2.203125 "/></g></g></g><g fill="#263d54" fill-opacity="1"><g transform="translate(242.525141, 260.327136)"><g><path d="M 2.40625 -20.046875 L 6.171875 -20.046875 L 7.046875 -16.671875 L 7.21875 -16.671875 C 7.21875 -16.828125 7.320312 -17.21875 7.53125 -17.84375 C 7.75 -18.476562 8.144531 -19.078125 8.71875 -19.640625 C 9.289062 -20.203125 10.054688 -20.484375 11.015625 -20.484375 C 11.554688 -20.484375 12.164062 -20.398438 12.84375 -20.234375 C 13.519531 -20.078125 13.96875 -19.972656 14.1875 -19.921875 L 13.703125 -16.1875 C 13.492188 -16.238281 13.019531 -16.34375 12.28125 -16.5 C 11.550781 -16.664062 10.914062 -16.75 10.375 -16.75 C 9.757812 -16.75 9.257812 -16.566406 8.875 -16.203125 C 8.488281 -15.847656 8.203125 -15.46875 8.015625 -15.0625 C 7.828125 -14.664062 7.734375 -14.425781 7.734375 -14.34375 L 7.734375 0 L 2.40625 0 Z M 2.40625 -20.046875 "/></g></g></g><g fill="#263d54" fill-opacity="1"><g transform="translate(258.151304, 260.327136)"><g><path d="M 5.09375 -23.046875 C 4.289062 -23.046875 3.582031 -23.3125 2.96875 -23.84375 C 2.351562 -24.457031 2.046875 -25.21875 2.046875 -26.125 C 2.046875 -27.007812 2.351562 -27.757812 2.96875 -28.375 C 3.53125 -28.90625 4.238281 -29.171875 5.09375 -29.171875 C 5.914062 -29.171875 6.597656 -28.921875 7.140625 -28.421875 C 7.722656 -27.804688 8.015625 -27.039062 8.015625 -26.125 C 8.015625 -25.195312 7.722656 -24.425781 7.140625 -23.8125 C 6.546875 -23.300781 5.863281 -23.046875 5.09375 -23.046875 Z M 2.40625 0 L 2.40625 -20.046875 L 7.734375 -20.046875 L 7.734375 0 Z M 2.40625 0 "/></g></g></g><g fill="#263d54" fill-opacity="1"><g transform="translate(269.69069, 260.327136)"><g><path d="M 10.5 0.4375 C 7.507812 0.4375 5.203125 -0.46875 3.578125 -2.28125 C 1.960938 -4.101562 1.15625 -6.679688 1.15625 -10.015625 C 1.15625 -13.359375 1.960938 -15.9375 3.578125 -17.75 C 5.203125 -19.570312 7.507812 -20.484375 10.5 -20.484375 C 13.519531 -20.484375 15.835938 -19.570312 17.453125 -17.75 C 19.066406 -15.9375 19.875 -13.359375 19.875 -10.015625 C 19.875 -6.703125 19.039062 -4.128906 17.375 -2.296875 C 15.707031 -0.472656 13.414062 0.4375 10.5 0.4375 Z M 10.5 -2.203125 C 11.382812 -2.203125 12.085938 -2.457031 12.609375 -2.96875 C 13.128906 -3.476562 13.507812 -4.289062 13.75 -5.40625 C 13.988281 -6.53125 14.109375 -8.066406 14.109375 -10.015625 C 14.109375 -11.960938 13.988281 -13.5 13.75 -14.625 C 13.507812 -15.75 13.132812 -16.554688 12.625 -17.046875 C 12.113281 -17.546875 11.40625 -17.796875 10.5 -17.796875 C 9.59375 -17.796875 8.882812 -17.546875 8.375 -17.046875 C 7.863281 -16.554688 7.488281 -15.75 7.25 -14.625 C 7.007812 -13.5 6.890625 -11.976562 6.890625 -10.0625 C 6.890625 -8.113281 7.007812 -6.570312 7.25 -5.4375 C 7.488281 -4.300781 7.867188 -3.476562 8.390625 -2.96875 C 8.910156 -2.457031 9.613281 -2.203125 10.5 -2.203125 Z M 10.5 -2.203125 "/></g></g></g><g fill="#263d54" fill-opacity="1"><g transform="translate(131.264528, 307.812431)"><g><path d="M 13.34375 0.40625 C 9.738281 0.40625 6.929688 -0.757812 4.921875 -3.09375 C 2.921875 -5.4375 1.921875 -8.664062 1.921875 -12.78125 C 1.921875 -15.53125 2.378906 -17.929688 3.296875 -19.984375 C 4.222656 -22.046875 5.535156 -23.628906 7.234375 -24.734375 C 8.929688 -25.847656 10.898438 -26.40625 13.140625 -26.40625 C 14.367188 -26.40625 15.550781 -26.242188 16.6875 -25.921875 C 17.820312 -25.609375 18.789062 -25.25 19.59375 -24.84375 C 20.394531 -24.445312 20.796875 -24.234375 20.796875 -24.203125 L 20.4375 -22.28125 C 20.4375 -22.3125 20.046875 -22.515625 19.265625 -22.890625 C 18.492188 -23.265625 17.59375 -23.609375 16.5625 -23.921875 C 15.539062 -24.242188 14.507812 -24.40625 13.46875 -24.40625 C 10.875 -24.40625 8.84375 -23.421875 7.375 -21.453125 C 5.90625 -19.492188 5.171875 -16.628906 5.171875 -12.859375 C 5.171875 -9.148438 5.914062 -6.347656 7.40625 -4.453125 C 8.90625 -2.554688 11.003906 -1.609375 13.703125 -1.609375 C 15.117188 -1.609375 16.359375 -1.898438 17.421875 -2.484375 C 18.492188 -3.066406 19.34375 -3.691406 19.96875 -4.359375 C 20.601562 -5.035156 20.921875 -5.425781 20.921875 -5.53125 L 22.046875 -4.25 C 22.046875 -4.113281 21.695312 -3.648438 21 -2.859375 C 20.300781 -2.078125 19.304688 -1.335938 18.015625 -0.640625 C 16.722656 0.0546875 15.164062 0.40625 13.34375 0.40625 Z M 13.34375 0.40625 "/></g></g></g><g fill="#263d54" fill-opacity="1"><g transform="translate(155.504989, 307.812431)"><g><path d="M 0.921875 0 L 9.703125 -26.046875 L 13.265625 -26.046875 L 21.875 0 L 18.71875 0 L 15.984375 -8.015625 L 5.765625 -8.015625 L 3.046875 0 Z M 6.328125 -9.65625 L 15.46875 -9.65625 L 10.9375 -23.71875 Z M 6.328125 -9.65625 "/></g></g></g><g fill="#263d54" fill-opacity="1"><g transform="translate(179.66532, 307.812431)"><g><path d="M 9.453125 0.40625 C 7.722656 0.40625 6.28125 0.148438 5.125 -0.359375 C 3.976562 -0.867188 3.128906 -1.410156 2.578125 -1.984375 C 2.035156 -2.554688 1.765625 -2.894531 1.765625 -3 L 2.765625 -4.5625 C 2.765625 -4.488281 3.015625 -4.191406 3.515625 -3.671875 C 4.023438 -3.148438 4.769531 -2.664062 5.75 -2.21875 C 6.726562 -1.78125 7.925781 -1.5625 9.34375 -1.5625 C 11.019531 -1.5625 12.335938 -2.046875 13.296875 -3.015625 C 14.265625 -3.992188 14.75 -5.207031 14.75 -6.65625 C 14.75 -7.644531 14.507812 -8.472656 14.03125 -9.140625 C 13.550781 -9.804688 12.957031 -10.335938 12.25 -10.734375 C 11.539062 -11.140625 10.582031 -11.597656 9.375 -12.109375 C 7.988281 -12.660156 6.867188 -13.191406 6.015625 -13.703125 C 5.160156 -14.210938 4.4375 -14.914062 3.84375 -15.8125 C 3.257812 -16.707031 2.96875 -17.847656 2.96875 -19.234375 C 2.96875 -21.429688 3.660156 -23.175781 5.046875 -24.46875 C 6.441406 -25.757812 8.300781 -26.40625 10.625 -26.40625 C 11.769531 -26.40625 12.800781 -26.238281 13.71875 -25.90625 C 14.644531 -25.570312 15.390625 -25.210938 15.953125 -24.828125 C 16.515625 -24.441406 16.796875 -24.222656 16.796875 -24.171875 L 16.390625 -22.40625 C 16.390625 -22.457031 16.117188 -22.671875 15.578125 -23.046875 C 15.046875 -23.421875 14.363281 -23.765625 13.53125 -24.078125 C 12.707031 -24.398438 11.789062 -24.5625 10.78125 -24.5625 C 9.28125 -24.5625 8.101562 -24.144531 7.25 -23.3125 C 6.394531 -22.488281 5.96875 -21.367188 5.96875 -19.953125 C 5.96875 -18.960938 6.203125 -18.140625 6.671875 -17.484375 C 7.140625 -16.835938 7.726562 -16.3125 8.4375 -15.90625 C 9.144531 -15.507812 10.085938 -15.070312 11.265625 -14.59375 C 12.679688 -14 13.816406 -13.441406 14.671875 -12.921875 C 15.523438 -12.398438 16.25 -11.671875 16.84375 -10.734375 C 17.445312 -9.804688 17.75 -8.609375 17.75 -7.140625 C 17.75 -5.660156 17.40625 -4.351562 16.71875 -3.21875 C 16.039062 -2.082031 15.070312 -1.191406 13.8125 -0.546875 C 12.5625 0.0859375 11.109375 0.40625 9.453125 0.40625 Z M 9.453125 0.40625 "/></g></g></g><g fill="#263d54" fill-opacity="1"><g transform="translate(200.700464, 307.812431)"><g><path d="M 3.765625 0 L 3.765625 -26.046875 L 6.8125 -26.046875 L 6.8125 -1.921875 L 18.390625 -1.921875 L 18.390625 0 Z M 3.765625 0 "/></g></g></g><g fill="#263d54" fill-opacity="1"><g transform="translate(220.974335, 307.812431)"><g><path d="M 0.921875 0 L 9.703125 -26.046875 L 13.265625 -26.046875 L 21.875 0 L 18.71875 0 L 15.984375 -8.015625 L 5.765625 -8.015625 L 3.046875 0 Z M 6.328125 -9.65625 L 15.46875 -9.65625 L 10.9375 -23.71875 Z M 6.328125 -9.65625 "/></g></g></g></svg>